<?xml version="1.0" encoding="UTF-8" standalone="no"?>
<!DOCTYPE svg PUBLIC "-//W3C//DTD SVG 1.1//EN"
 "http://www.w3.org/Graphics/SVG/1.1/DTD/svg11.dtd">
<!-- Generated by graphviz version 2.43.0 (0)
 -->
<!-- Title: NYPL_Data_Cleaning_Workflow Pages: 1 -->
<svg width="1157pt" height="949pt"
 viewBox="0.00 0.00 1157.00 949.00" xmlns="http://www.w3.org/2000/svg" xmlns:xlink="http://www.w3.org/1999/xlink">
<g id="graph0" class="graph" transform="scale(1 1) rotate(0) translate(4 945)">
<title>NYPL_Data_Cleaning_Workflow</title>
<polygon fill="white" stroke="transparent" points="-4,4 -4,-945 1153,-945 1153,4 -4,4"/>
<g id="clust1" class="cluster">
<title>cluster_input</title>
<polygon fill="none" stroke="black" stroke-dasharray="5,2" points="241,-858 241,-933 879,-933 879,-858 241,-858"/>
<text text-anchor="middle" x="560" y="-917.8" font-family="Times,serif" font-size="14.00">Input Data</text>
</g>
<g id="clust2" class="cluster">
<title>cluster_profiling</title>
<polygon fill="none" stroke="black" stroke-dasharray="5,2" points="8,-696 8,-850 140,-850 140,-696 8,-696"/>
<text text-anchor="middle" x="74" y="-834.8" font-family="Times,serif" font-size="14.00">Data Profiling</text>
</g>
<g id="clust3" class="cluster">
<title>cluster_menu_clean</title>
<polygon fill="none" stroke="black" stroke-dasharray="5,2" points="148,-252 148,-850 335,-850 335,-252 148,-252"/>
<text text-anchor="middle" x="241.5" y="-834.8" font-family="Times,serif" font-size="14.00">Menu Cleaning Pipeline</text>
</g>
<g id="clust4" class="cluster">
<title>cluster_menuitem_clean</title>
<polygon fill="none" stroke="black" stroke-dasharray="5,2" points="759,-252 759,-773 979,-773 979,-252 759,-252"/>
<text text-anchor="middle" x="869" y="-757.8" font-family="Times,serif" font-size="14.00">MenuItem Cleaning Pipeline</text>
</g>
<g id="clust5" class="cluster">
<title>cluster_dish_clean</title>
<polygon fill="none" stroke="black" stroke-dasharray="5,2" points="343,-400 343,-850 522,-850 522,-400 343,-400"/>
<text text-anchor="middle" x="432.5" y="-834.8" font-family="Times,serif" font-size="14.00">Dish Cleaning Pipeline</text>
</g>
<g id="clust6" class="cluster">
<title>cluster_menupage_clean</title>
<polygon fill="none" stroke="black" stroke-dasharray="5,2" points="530,-622 530,-850 751,-850 751,-622 530,-622"/>
<text text-anchor="middle" x="640.5" y="-834.8" font-family="Times,serif" font-size="14.00">MenuPage Cleaning Pipeline</text>
</g>
<g id="clust7" class="cluster">
<title>cluster_validation</title>
<polygon fill="none" stroke="black" stroke-dasharray="5,2" points="715,-8 715,-159 859,-159 859,-8 715,-8"/>
<text text-anchor="middle" x="787" y="-143.8" font-family="Times,serif" font-size="14.00">Quality Validation</text>
</g>
<g id="clust8" class="cluster">
<title>cluster_output</title>
<polygon fill="none" stroke="black" stroke-dasharray="5,2" points="16,-167 16,-244 977,-244 977,-167 16,-167"/>
<text text-anchor="middle" x="496.5" y="-228.8" font-family="Times,serif" font-size="14.00">Output Data</text>
</g>
<!-- raw_menu_csv -->
<g id="node1" class="node">
<title>raw_menu_csv</title>
<polygon fill="lightblue" stroke="black" points="376.5,-902 249.5,-902 249.5,-866 376.5,-866 376.5,-902"/>
<text text-anchor="middle" x="313" y="-880.3" font-family="Times,serif" font-size="14.00">Raw Menu CSV</text>
</g>
<!-- profiling -->
<g id="node5" class="node">
<title>profiling</title>
<polygon fill="lightyellow" stroke="black" points="132,-819 16,-819 16,-781 132,-781 132,-819"/>
<text text-anchor="middle" x="74" y="-803.8" font-family="Times,serif" font-size="14.00">Data Profiling</text>
<text text-anchor="middle" x="74" y="-788.8" font-family="Times,serif" font-size="14.00">&amp; Analysis</text>
</g>
<!-- raw_menu_csv&#45;&gt;profiling -->
<g id="edge1" class="edge">
<title>raw_menu_csv&#45;&gt;profiling</title>
<path fill="none" stroke="black" d="M249.35,-876.95C216.87,-872.29 177.29,-864.15 144,-850 129.61,-843.88 115.2,-834.5 103.23,-825.57"/>
<polygon fill="black" stroke="black" points="105.03,-822.54 94.98,-819.2 100.76,-828.08 105.03,-822.54"/>
</g>
<!-- menu_cleaning -->
<g id="node7" class="node">
<title>menu_cleaning</title>
<polygon fill="lightgreen" stroke="black" points="316.5,-819 199.5,-819 199.5,-781 316.5,-781 316.5,-819"/>
<text text-anchor="middle" x="258" y="-803.8" font-family="Times,serif" font-size="14.00">Menu Dataset</text>
<text text-anchor="middle" x="258" y="-788.8" font-family="Times,serif" font-size="14.00">Cleaning</text>
</g>
<!-- raw_menu_csv&#45;&gt;menu_cleaning -->
<g id="edge6" class="edge">
<title>raw_menu_csv&#45;&gt;menu_cleaning</title>
<path fill="none" stroke="black" d="M301.34,-865.61C293.98,-854.64 284.32,-840.25 276,-827.83"/>
<polygon fill="black" stroke="black" points="278.7,-825.57 270.22,-819.22 272.88,-829.47 278.7,-825.57"/>
</g>
<!-- before_after -->
<g id="node32" class="node">
<title>before_after</title>
<polygon fill="lightgray" stroke="black" points="851,-54 747,-54 747,-16 851,-16 851,-54"/>
<text text-anchor="middle" x="799" y="-38.8" font-family="Times,serif" font-size="14.00">Before/After</text>
<text text-anchor="middle" x="799" y="-23.8" font-family="Times,serif" font-size="14.00">Analysis</text>
</g>
<!-- raw_menu_csv&#45;&gt;before_after -->
<g id="edge39" class="edge">
<title>raw_menu_csv&#45;&gt;before_after</title>
<path fill="none" stroke="black" d="M355.05,-865.94C364.74,-862.71 375.1,-859.78 385,-858 465.94,-843.45 674,-864.21 755,-850 874.44,-829.05 997,-845.26 997,-724 997,-724 997,-724 997,-193 997,-122.35 918.65,-78.46 860.53,-55.62"/>
<polygon fill="black" stroke="black" points="861.61,-52.29 851.02,-52 859.12,-58.83 861.61,-52.29"/>
</g>
<!-- raw_menuitem_csv -->
<g id="node2" class="node">
<title>raw_menuitem_csv</title>
<polygon fill="lightblue" stroke="black" points="871,-902 711,-902 711,-866 871,-866 871,-902"/>
<text text-anchor="middle" x="791" y="-880.3" font-family="Times,serif" font-size="14.00">Raw MenuItem CSV</text>
</g>
<!-- raw_menuitem_csv&#45;&gt;profiling -->
<g id="edge2" class="edge">
<title>raw_menuitem_csv&#45;&gt;profiling</title>
<path fill="none" stroke="black" d="M738.78,-865.9C726.82,-862.67 714.07,-859.75 702,-858 671.32,-853.55 173.5,-859.53 144,-850 128.4,-844.96 113.23,-835.14 101.02,-825.61"/>
<polygon fill="black" stroke="black" points="103.03,-822.73 93.07,-819.12 98.6,-828.15 103.03,-822.73"/>
</g>
<!-- menuitem_cleaning -->
<g id="node15" class="node">
<title>menuitem_cleaning</title>
<polygon fill="lightcoral" stroke="black" points="943,-742 793,-742 793,-704 943,-704 943,-742"/>
<text text-anchor="middle" x="868" y="-726.8" font-family="Times,serif" font-size="14.00">MenuItem Dataset</text>
<text text-anchor="middle" x="868" y="-711.8" font-family="Times,serif" font-size="14.00">Cleaning</text>
</g>
<!-- raw_menuitem_csv&#45;&gt;menuitem_cleaning -->
<g id="edge15" class="edge">
<title>raw_menuitem_csv&#45;&gt;menuitem_cleaning</title>
<path fill="none" stroke="black" d="M799.24,-865.98C812.52,-838.57 838.76,-784.37 854.71,-751.44"/>
<polygon fill="black" stroke="black" points="857.9,-752.88 859.11,-742.36 851.6,-749.83 857.9,-752.88"/>
</g>
<!-- raw_menuitem_csv&#45;&gt;before_after -->
<g id="edge40" class="edge">
<title>raw_menuitem_csv&#45;&gt;before_after</title>
<path fill="none" stroke="black" d="M871.34,-881.37C976.89,-874.47 1149,-844.71 1149,-724 1149,-724 1149,-724 1149,-500 1149,-401.01 1109.33,-180.23 1011,-90 970.46,-52.8 907.91,-40.41 861.25,-36.66"/>
<polygon fill="black" stroke="black" points="861.46,-33.17 851.25,-35.97 860.98,-40.15 861.46,-33.17"/>
</g>
<!-- raw_dish_csv -->
<g id="node3" class="node">
<title>raw_dish_csv</title>
<polygon fill="lightblue" stroke="black" points="513.5,-902 394.5,-902 394.5,-866 513.5,-866 513.5,-902"/>
<text text-anchor="middle" x="454" y="-880.3" font-family="Times,serif" font-size="14.00">Raw Dish CSV</text>
</g>
<!-- raw_dish_csv&#45;&gt;profiling -->
<g id="edge3" class="edge">
<title>raw_dish_csv&#45;&gt;profiling</title>
<path fill="none" stroke="black" d="M413.37,-865.89C404.19,-862.7 394.38,-859.81 385,-858 332.38,-847.86 194.83,-866.96 144,-850 128.56,-844.85 113.51,-835.12 101.33,-825.68"/>
<polygon fill="black" stroke="black" points="103.37,-822.82 93.4,-819.25 98.96,-828.26 103.37,-822.82"/>
</g>
<!-- dish_cleaning -->
<g id="node22" class="node">
<title>dish_cleaning</title>
<polygon fill="lightsalmon" stroke="black" points="507.5,-819 398.5,-819 398.5,-781 507.5,-781 507.5,-819"/>
<text text-anchor="middle" x="453" y="-803.8" font-family="Times,serif" font-size="14.00">Dish Dataset</text>
<text text-anchor="middle" x="453" y="-788.8" font-family="Times,serif" font-size="14.00">Cleaning</text>
</g>
<!-- raw_dish_csv&#45;&gt;dish_cleaning -->
<g id="edge23" class="edge">
<title>raw_dish_csv&#45;&gt;dish_cleaning</title>
<path fill="none" stroke="black" d="M453.79,-865.61C453.66,-855.07 453.49,-841.36 453.34,-829.29"/>
<polygon fill="black" stroke="black" points="456.84,-829.17 453.22,-819.22 449.84,-829.26 456.84,-829.17"/>
</g>
<!-- raw_dish_csv&#45;&gt;before_after -->
<g id="edge41" class="edge">
<title>raw_dish_csv&#45;&gt;before_after</title>
<path fill="none" stroke="black" d="M493.64,-865.9C502.79,-862.67 512.6,-859.75 522,-858 535.35,-855.51 1001.47,-859.68 1011,-850 1070.22,-789.8 1062.82,-156.67 1011,-90 992.71,-66.46 917.13,-51.49 861.41,-43.42"/>
<polygon fill="black" stroke="black" points="861.64,-39.92 851.25,-42 860.67,-46.85 861.64,-39.92"/>
</g>
<!-- raw_menupage_csv -->
<g id="node4" class="node">
<title>raw_menupage_csv</title>
<polygon fill="lightblue" stroke="black" points="692.5,-902 531.5,-902 531.5,-866 692.5,-866 692.5,-902"/>
<text text-anchor="middle" x="612" y="-880.3" font-family="Times,serif" font-size="14.00">Raw MenuPage CSV</text>
</g>
<!-- raw_menupage_csv&#45;&gt;profiling -->
<g id="edge4" class="edge">
<title>raw_menupage_csv&#45;&gt;profiling</title>
<path fill="none" stroke="black" d="M559.17,-865.96C547.08,-862.73 534.19,-859.79 522,-858 480.44,-851.89 183.93,-863.05 144,-850 128.42,-844.91 113.25,-835.08 101.03,-825.56"/>
<polygon fill="black" stroke="black" points="103.04,-822.68 93.08,-819.07 98.62,-828.11 103.04,-822.68"/>
</g>
<!-- menupage_cleaning -->
<g id="node28" class="node">
<title>menupage_cleaning</title>
<polygon fill="lightsteelblue" stroke="black" points="690,-819 538,-819 538,-781 690,-781 690,-819"/>
<text text-anchor="middle" x="614" y="-803.8" font-family="Times,serif" font-size="14.00">MenuPage Dataset</text>
<text text-anchor="middle" x="614" y="-788.8" font-family="Times,serif" font-size="14.00">Cleaning</text>
</g>
<!-- raw_menupage_csv&#45;&gt;menupage_cleaning -->
<g id="edge30" class="edge">
<title>raw_menupage_csv&#45;&gt;menupage_cleaning</title>
<path fill="none" stroke="black" d="M612.42,-865.61C612.68,-855.07 613.02,-841.36 613.31,-829.29"/>
<polygon fill="black" stroke="black" points="616.81,-829.3 613.56,-819.22 609.81,-829.13 616.81,-829.3"/>
</g>
<!-- raw_menupage_csv&#45;&gt;before_after -->
<g id="edge42" class="edge">
<title>raw_menupage_csv&#45;&gt;before_after</title>
<path fill="none" stroke="black" d="M664.83,-865.98C676.92,-862.74 689.81,-859.81 702,-858 721.07,-855.18 1035.1,-863.36 1049,-850 1109.96,-791.41 1141,-155.06 1087,-90 1058.92,-56.16 937.44,-43.4 861.5,-38.68"/>
<polygon fill="black" stroke="black" points="861.29,-35.16 851.1,-38.07 860.88,-42.15 861.29,-35.16"/>
</g>
<!-- sql_analysis -->
<g id="node6" class="node">
<title>sql_analysis</title>
<polygon fill="lightyellow" stroke="black" points="125.5,-742 22.5,-742 22.5,-704 125.5,-704 125.5,-742"/>
<text text-anchor="middle" x="74" y="-726.8" font-family="Times,serif" font-size="14.00">SQL Quality</text>
<text text-anchor="middle" x="74" y="-711.8" font-family="Times,serif" font-size="14.00">Analysis</text>
</g>
<!-- profiling&#45;&gt;sql_analysis -->
<g id="edge5" class="edge">
<title>profiling&#45;&gt;sql_analysis</title>
<path fill="none" stroke="black" d="M74,-780.84C74,-772.34 74,-762.01 74,-752.5"/>
<polygon fill="black" stroke="black" points="77.5,-752.25 74,-742.25 70.5,-752.25 77.5,-752.25"/>
</g>
<!-- string_trim -->
<g id="node8" class="node">
<title>string_trim</title>
<polygon fill="lightgreen" stroke="black" points="316,-741 180,-741 180,-705 316,-705 316,-741"/>
<text text-anchor="middle" x="248" y="-719.3" font-family="Times,serif" font-size="14.00">String Trimming</text>
</g>
<!-- menu_cleaning&#45;&gt;string_trim -->
<g id="edge7" class="edge">
<title>menu_cleaning&#45;&gt;string_trim</title>
<path fill="none" stroke="black" d="M255.58,-780.84C254.4,-771.99 252.96,-761.16 251.65,-751.34"/>
<polygon fill="black" stroke="black" points="255.09,-750.67 250.3,-741.22 248.15,-751.59 255.09,-750.67"/>
</g>
<!-- type_convert -->
<g id="node9" class="node">
<title>type_convert</title>
<polygon fill="lightgreen" stroke="black" points="295.5,-668 198.5,-668 198.5,-630 295.5,-630 295.5,-668"/>
<text text-anchor="middle" x="247" y="-652.8" font-family="Times,serif" font-size="14.00">Data Type</text>
<text text-anchor="middle" x="247" y="-637.8" font-family="Times,serif" font-size="14.00">Conversion</text>
</g>
<!-- string_trim&#45;&gt;type_convert -->
<g id="edge8" class="edge">
<title>string_trim&#45;&gt;type_convert</title>
<path fill="none" stroke="black" d="M247.76,-704.94C247.65,-696.99 247.52,-687.31 247.39,-678.31"/>
<polygon fill="black" stroke="black" points="250.89,-678.15 247.25,-668.2 243.89,-678.25 250.89,-678.15"/>
</g>
<!-- value_std -->
<g id="node10" class="node">
<title>value_std</title>
<polygon fill="lightgreen" stroke="black" points="312.5,-594 181.5,-594 181.5,-556 312.5,-556 312.5,-594"/>
<text text-anchor="middle" x="247" y="-578.8" font-family="Times,serif" font-size="14.00">Value</text>
<text text-anchor="middle" x="247" y="-563.8" font-family="Times,serif" font-size="14.00">Standardization</text>
</g>
<!-- type_convert&#45;&gt;value_std -->
<g id="edge9" class="edge">
<title>type_convert&#45;&gt;value_std</title>
<path fill="none" stroke="black" d="M247,-629.83C247,-622.13 247,-612.97 247,-604.42"/>
<polygon fill="black" stroke="black" points="250.5,-604.41 247,-594.41 243.5,-604.41 250.5,-604.41"/>
</g>
<!-- geo_enrich -->
<g id="node11" class="node">
<title>geo_enrich</title>
<polygon fill="lightgreen" stroke="black" points="291.5,-520 190.5,-520 190.5,-482 291.5,-482 291.5,-520"/>
<text text-anchor="middle" x="241" y="-504.8" font-family="Times,serif" font-size="14.00">Geographic</text>
<text text-anchor="middle" x="241" y="-489.8" font-family="Times,serif" font-size="14.00">Enrichment</text>
</g>
<!-- value_std&#45;&gt;geo_enrich -->
<g id="edge10" class="edge">
<title>value_std&#45;&gt;geo_enrich</title>
<path fill="none" stroke="black" d="M245.49,-555.83C244.84,-548.13 244.08,-538.97 243.37,-530.42"/>
<polygon fill="black" stroke="black" points="246.85,-530.09 242.53,-520.41 239.88,-530.67 246.85,-530.09"/>
</g>
<!-- wikidata -->
<g id="node12" class="node">
<title>wikidata</title>
<polygon fill="lightgreen" stroke="black" points="299.5,-446 182.5,-446 182.5,-408 299.5,-408 299.5,-446"/>
<text text-anchor="middle" x="241" y="-430.8" font-family="Times,serif" font-size="14.00">Wikidata</text>
<text text-anchor="middle" x="241" y="-415.8" font-family="Times,serif" font-size="14.00">Reconciliation</text>
</g>
<!-- geo_enrich&#45;&gt;wikidata -->
<g id="edge11" class="edge">
<title>geo_enrich&#45;&gt;wikidata</title>
<path fill="none" stroke="black" d="M241,-481.83C241,-474.13 241,-464.97 241,-456.42"/>
<polygon fill="black" stroke="black" points="244.5,-456.41 241,-446.41 237.5,-456.41 244.5,-456.41"/>
</g>
<!-- opencage -->
<g id="node13" class="node">
<title>opencage</title>
<polygon fill="lightgreen" stroke="black" points="284,-372 192,-372 192,-334 284,-334 284,-372"/>
<text text-anchor="middle" x="238" y="-356.8" font-family="Times,serif" font-size="14.00">OpenCage</text>
<text text-anchor="middle" x="238" y="-341.8" font-family="Times,serif" font-size="14.00">Geocoding</text>
</g>
<!-- wikidata&#45;&gt;opencage -->
<g id="edge12" class="edge">
<title>wikidata&#45;&gt;opencage</title>
<path fill="none" stroke="black" d="M240.24,-407.83C239.92,-400.13 239.54,-390.97 239.18,-382.42"/>
<polygon fill="black" stroke="black" points="242.68,-382.26 238.77,-372.41 235.69,-382.55 242.68,-382.26"/>
</g>
<!-- column_cleanup -->
<g id="node14" class="node">
<title>column_cleanup</title>
<polygon fill="lightgreen" stroke="black" points="274.5,-298 199.5,-298 199.5,-260 274.5,-260 274.5,-298"/>
<text text-anchor="middle" x="237" y="-282.8" font-family="Times,serif" font-size="14.00">Column</text>
<text text-anchor="middle" x="237" y="-267.8" font-family="Times,serif" font-size="14.00">Cleanup</text>
</g>
<!-- opencage&#45;&gt;column_cleanup -->
<g id="edge13" class="edge">
<title>opencage&#45;&gt;column_cleanup</title>
<path fill="none" stroke="black" d="M237.75,-333.83C237.64,-326.13 237.51,-316.97 237.39,-308.42"/>
<polygon fill="black" stroke="black" points="240.89,-308.36 237.26,-298.41 233.9,-308.46 240.89,-308.36"/>
</g>
<!-- clean_menu_csv -->
<g id="node33" class="node">
<title>clean_menu_csv</title>
<polygon fill="lightpink" stroke="black" points="304.5,-212 167.5,-212 167.5,-176 304.5,-176 304.5,-212"/>
<text text-anchor="middle" x="236" y="-190.3" font-family="Times,serif" font-size="14.00">Clean Menu CSV</text>
</g>
<!-- column_cleanup&#45;&gt;clean_menu_csv -->
<g id="edge14" class="edge">
<title>column_cleanup&#45;&gt;clean_menu_csv</title>
<path fill="none" stroke="black" d="M236.78,-259.99C236.65,-249 236.48,-234.74 236.33,-222.37"/>
<polygon fill="black" stroke="black" points="239.83,-222.08 236.21,-212.12 232.83,-222.17 239.83,-222.08"/>
</g>
<!-- price_valid -->
<g id="node16" class="node">
<title>price_valid</title>
<polygon fill="lightcoral" stroke="black" points="912,-668 820,-668 820,-630 912,-630 912,-668"/>
<text text-anchor="middle" x="866" y="-652.8" font-family="Times,serif" font-size="14.00">Price Data</text>
<text text-anchor="middle" x="866" y="-637.8" font-family="Times,serif" font-size="14.00">Validation</text>
</g>
<!-- menuitem_cleaning&#45;&gt;price_valid -->
<g id="edge16" class="edge">
<title>menuitem_cleaning&#45;&gt;price_valid</title>
<path fill="none" stroke="black" d="M867.5,-703.83C867.28,-696.13 867.03,-686.97 866.79,-678.42"/>
<polygon fill="black" stroke="black" points="870.29,-678.31 866.51,-668.41 863.29,-678.51 870.29,-678.31"/>
</g>
<!-- price_impute -->
<g id="node17" class="node">
<title>price_impute</title>
<polygon fill="lightcoral" stroke="black" points="912.5,-594 817.5,-594 817.5,-556 912.5,-556 912.5,-594"/>
<text text-anchor="middle" x="865" y="-578.8" font-family="Times,serif" font-size="14.00">High Price</text>
<text text-anchor="middle" x="865" y="-563.8" font-family="Times,serif" font-size="14.00">Imputation</text>
</g>
<!-- price_valid&#45;&gt;price_impute -->
<g id="edge17" class="edge">
<title>price_valid&#45;&gt;price_impute</title>
<path fill="none" stroke="black" d="M865.75,-629.83C865.64,-622.13 865.51,-612.97 865.39,-604.42"/>
<polygon fill="black" stroke="black" points="868.89,-604.36 865.26,-594.41 861.9,-604.46 868.89,-604.36"/>
</g>
<!-- high_price_valid -->
<g id="node18" class="node">
<title>high_price_valid</title>
<polygon fill="lightcoral" stroke="black" points="893,-520 801,-520 801,-482 893,-482 893,-520"/>
<text text-anchor="middle" x="847" y="-504.8" font-family="Times,serif" font-size="14.00">High Price</text>
<text text-anchor="middle" x="847" y="-489.8" font-family="Times,serif" font-size="14.00">Validation</text>
</g>
<!-- price_impute&#45;&gt;high_price_valid -->
<g id="edge18" class="edge">
<title>price_impute&#45;&gt;high_price_valid</title>
<path fill="none" stroke="black" d="M860.46,-555.83C858.51,-548.05 856.19,-538.77 854.03,-530.13"/>
<polygon fill="black" stroke="black" points="857.42,-529.27 851.6,-520.41 850.63,-530.96 857.42,-529.27"/>
</g>
<!-- price_logic -->
<g id="node19" class="node">
<title>price_logic</title>
<polygon fill="lightcoral" stroke="black" points="893,-446 797,-446 797,-408 893,-408 893,-446"/>
<text text-anchor="middle" x="845" y="-430.8" font-family="Times,serif" font-size="14.00">Price Logic</text>
<text text-anchor="middle" x="845" y="-415.8" font-family="Times,serif" font-size="14.00">Validation</text>
</g>
<!-- high_price_valid&#45;&gt;price_logic -->
<g id="edge19" class="edge">
<title>high_price_valid&#45;&gt;price_logic</title>
<path fill="none" stroke="black" d="M846.5,-481.83C846.28,-474.13 846.03,-464.97 845.79,-456.42"/>
<polygon fill="black" stroke="black" points="849.29,-456.31 845.51,-446.41 842.29,-456.51 849.29,-456.31"/>
</g>
<!-- field_valid -->
<g id="node20" class="node">
<title>field_valid</title>
<polygon fill="lightcoral" stroke="black" points="906,-372 776,-372 776,-334 906,-334 906,-372"/>
<text text-anchor="middle" x="841" y="-356.8" font-family="Times,serif" font-size="14.00">Required Fields</text>
<text text-anchor="middle" x="841" y="-341.8" font-family="Times,serif" font-size="14.00">Validation</text>
</g>
<!-- price_logic&#45;&gt;field_valid -->
<g id="edge20" class="edge">
<title>price_logic&#45;&gt;field_valid</title>
<path fill="none" stroke="black" d="M843.99,-407.83C843.56,-400.13 843.05,-390.97 842.58,-382.42"/>
<polygon fill="black" stroke="black" points="846.07,-382.2 842.02,-372.41 839.08,-382.59 846.07,-382.2"/>
</g>
<!-- position_valid -->
<g id="node21" class="node">
<title>position_valid</title>
<polygon fill="lightcoral" stroke="black" points="888,-298 776,-298 776,-260 888,-260 888,-298"/>
<text text-anchor="middle" x="832" y="-282.8" font-family="Times,serif" font-size="14.00">Position Data</text>
<text text-anchor="middle" x="832" y="-267.8" font-family="Times,serif" font-size="14.00">Validation</text>
</g>
<!-- field_valid&#45;&gt;position_valid -->
<g id="edge21" class="edge">
<title>field_valid&#45;&gt;position_valid</title>
<path fill="none" stroke="black" d="M838.73,-333.83C837.77,-326.13 836.62,-316.97 835.55,-308.42"/>
<polygon fill="black" stroke="black" points="839.02,-307.9 834.3,-298.41 832.07,-308.77 839.02,-307.9"/>
</g>
<!-- clean_menuitem_csv -->
<g id="node34" class="node">
<title>clean_menuitem_csv</title>
<polygon fill="lightpink" stroke="black" points="829,-212 659,-212 659,-176 829,-176 829,-212"/>
<text text-anchor="middle" x="744" y="-190.3" font-family="Times,serif" font-size="14.00">Clean MenuItem CSV</text>
</g>
<!-- position_valid&#45;&gt;clean_menuitem_csv -->
<g id="edge22" class="edge">
<title>position_valid&#45;&gt;clean_menuitem_csv</title>
<path fill="none" stroke="black" d="M812.91,-259.99C800.2,-248 783.35,-232.12 769.5,-219.05"/>
<polygon fill="black" stroke="black" points="771.83,-216.44 762.16,-212.12 767.03,-221.53 771.83,-216.44"/>
</g>
<!-- dish_ic_removal -->
<g id="node23" class="node">
<title>dish_ic_removal</title>
<polygon fill="lightsalmon" stroke="black" points="480,-742 386,-742 386,-704 480,-704 480,-742"/>
<text text-anchor="middle" x="433" y="-726.8" font-family="Times,serif" font-size="14.00">Remove IC</text>
<text text-anchor="middle" x="433" y="-711.8" font-family="Times,serif" font-size="14.00">Violations</text>
</g>
<!-- dish_cleaning&#45;&gt;dish_ic_removal -->
<g id="edge24" class="edge">
<title>dish_cleaning&#45;&gt;dish_ic_removal</title>
<path fill="none" stroke="black" d="M448.16,-780.84C445.87,-772.25 443.08,-761.79 440.52,-752.19"/>
<polygon fill="black" stroke="black" points="443.82,-751.01 437.87,-742.25 437.06,-752.81 443.82,-751.01"/>
</g>
<!-- dish_date_clean -->
<g id="node24" class="node">
<title>dish_date_clean</title>
<polygon fill="lightsalmon" stroke="black" points="485,-668 375,-668 375,-630 485,-630 485,-668"/>
<text text-anchor="middle" x="430" y="-652.8" font-family="Times,serif" font-size="14.00">Clean Invalid</text>
<text text-anchor="middle" x="430" y="-637.8" font-family="Times,serif" font-size="14.00">Dates</text>
</g>
<!-- dish_ic_removal&#45;&gt;dish_date_clean -->
<g id="edge25" class="edge">
<title>dish_ic_removal&#45;&gt;dish_date_clean</title>
<path fill="none" stroke="black" d="M432.24,-703.83C431.92,-696.13 431.54,-686.97 431.18,-678.42"/>
<polygon fill="black" stroke="black" points="434.68,-678.26 430.77,-668.41 427.69,-678.55 434.68,-678.26"/>
</g>
<!-- dish_price_clean -->
<g id="node25" class="node">
<title>dish_price_clean</title>
<polygon fill="lightsalmon" stroke="black" points="488.5,-594 361.5,-594 361.5,-556 488.5,-556 488.5,-594"/>
<text text-anchor="middle" x="425" y="-578.8" font-family="Times,serif" font-size="14.00">Remove Invalid</text>
<text text-anchor="middle" x="425" y="-563.8" font-family="Times,serif" font-size="14.00">Pricing</text>
</g>
<!-- dish_date_clean&#45;&gt;dish_price_clean -->
<g id="edge26" class="edge">
<title>dish_date_clean&#45;&gt;dish_price_clean</title>
<path fill="none" stroke="black" d="M428.74,-629.83C428.2,-622.13 427.57,-612.97 426.97,-604.42"/>
<polygon fill="black" stroke="black" points="430.46,-604.15 426.28,-594.41 423.48,-604.63 430.46,-604.15"/>
</g>
<!-- dish_name_std -->
<g id="node26" class="node">
<title>dish_name_std</title>
<polygon fill="lightsalmon" stroke="black" points="471.5,-520 368.5,-520 368.5,-482 471.5,-482 471.5,-520"/>
<text text-anchor="middle" x="420" y="-504.8" font-family="Times,serif" font-size="14.00">Standardize</text>
<text text-anchor="middle" x="420" y="-489.8" font-family="Times,serif" font-size="14.00">Dish Names</text>
</g>
<!-- dish_price_clean&#45;&gt;dish_name_std -->
<g id="edge27" class="edge">
<title>dish_price_clean&#45;&gt;dish_name_std</title>
<path fill="none" stroke="black" d="M423.74,-555.83C423.2,-548.13 422.57,-538.97 421.97,-530.42"/>
<polygon fill="black" stroke="black" points="425.46,-530.15 421.28,-520.41 418.48,-530.63 425.46,-530.15"/>
</g>
<!-- dish_column_drop -->
<g id="node27" class="node">
<title>dish_column_drop</title>
<polygon fill="lightsalmon" stroke="black" points="470.5,-446 359.5,-446 359.5,-408 470.5,-408 470.5,-446"/>
<text text-anchor="middle" x="415" y="-430.8" font-family="Times,serif" font-size="14.00">Drop Unused</text>
<text text-anchor="middle" x="415" y="-415.8" font-family="Times,serif" font-size="14.00">Columns</text>
</g>
<!-- dish_name_std&#45;&gt;dish_column_drop -->
<g id="edge28" class="edge">
<title>dish_name_std&#45;&gt;dish_column_drop</title>
<path fill="none" stroke="black" d="M418.74,-481.83C418.2,-474.13 417.57,-464.97 416.97,-456.42"/>
<polygon fill="black" stroke="black" points="420.46,-456.15 416.28,-446.41 413.48,-456.63 420.46,-456.15"/>
</g>
<!-- clean_dish_csv -->
<g id="node35" class="node">
<title>clean_dish_csv</title>
<polygon fill="lightpink" stroke="black" points="451,-212 323,-212 323,-176 451,-176 451,-212"/>
<text text-anchor="middle" x="387" y="-190.3" font-family="Times,serif" font-size="14.00">Clean Dish CSV</text>
</g>
<!-- dish_column_drop&#45;&gt;clean_dish_csv -->
<g id="edge29" class="edge">
<title>dish_column_drop&#45;&gt;clean_dish_csv</title>
<path fill="none" stroke="black" d="M412.8,-407.87C407.91,-367.52 396.1,-270.06 390.31,-222.3"/>
<polygon fill="black" stroke="black" points="393.75,-221.6 389.07,-212.1 386.8,-222.45 393.75,-221.6"/>
</g>
<!-- menupage_ic_removal -->
<g id="node29" class="node">
<title>menupage_ic_removal</title>
<polygon fill="lightsteelblue" stroke="black" points="691.5,-742 538.5,-742 538.5,-704 691.5,-704 691.5,-742"/>
<text text-anchor="middle" x="615" y="-726.8" font-family="Times,serif" font-size="14.00">Remove MenuPage</text>
<text text-anchor="middle" x="615" y="-711.8" font-family="Times,serif" font-size="14.00">IC Violations</text>
</g>
<!-- menupage_cleaning&#45;&gt;menupage_ic_removal -->
<g id="edge31" class="edge">
<title>menupage_cleaning&#45;&gt;menupage_ic_removal</title>
<path fill="none" stroke="black" d="M614.24,-780.84C614.36,-772.34 614.49,-762.01 614.62,-752.5"/>
<polygon fill="black" stroke="black" points="618.12,-752.29 614.76,-742.25 611.12,-752.2 618.12,-752.29"/>
</g>
<!-- menupage_page_clean -->
<g id="node30" class="node">
<title>menupage_page_clean</title>
<polygon fill="lightsteelblue" stroke="black" points="668,-668 546,-668 546,-630 668,-630 668,-668"/>
<text text-anchor="middle" x="607" y="-652.8" font-family="Times,serif" font-size="14.00">Clean Invalid</text>
<text text-anchor="middle" x="607" y="-637.8" font-family="Times,serif" font-size="14.00">Page Numbers</text>
</g>
<!-- menupage_ic_removal&#45;&gt;menupage_page_clean -->
<g id="edge32" class="edge">
<title>menupage_ic_removal&#45;&gt;menupage_page_clean</title>
<path fill="none" stroke="black" d="M612.98,-703.83C612.13,-696.13 611.11,-686.97 610.16,-678.42"/>
<polygon fill="black" stroke="black" points="613.63,-677.97 609.05,-668.41 606.67,-678.74 613.63,-677.97"/>
</g>
<!-- clean_menupage_csv -->
<g id="node36" class="node">
<title>clean_menupage_csv</title>
<polygon fill="lightpink" stroke="black" points="640.5,-212 469.5,-212 469.5,-176 640.5,-176 640.5,-212"/>
<text text-anchor="middle" x="555" y="-190.3" font-family="Times,serif" font-size="14.00">Clean MenuPage CSV</text>
</g>
<!-- menupage_page_clean&#45;&gt;clean_menupage_csv -->
<g id="edge33" class="edge">
<title>menupage_page_clean&#45;&gt;clean_menupage_csv</title>
<path fill="none" stroke="black" d="M601.61,-629.75C594,-602.29 581,-548.6 581,-502 581,-502 581,-502 581,-352 581,-306.03 570.02,-253.5 562.33,-222.35"/>
<polygon fill="black" stroke="black" points="565.62,-221.1 559.77,-212.27 558.84,-222.82 565.62,-221.1"/>
</g>
<!-- quality_valid -->
<g id="node31" class="node">
<title>quality_valid</title>
<polygon fill="lightgray" stroke="black" points="811,-128 723,-128 723,-90 811,-90 811,-128"/>
<text text-anchor="middle" x="767" y="-112.8" font-family="Times,serif" font-size="14.00">Quality</text>
<text text-anchor="middle" x="767" y="-97.8" font-family="Times,serif" font-size="14.00">Validation</text>
</g>
<!-- quality_valid&#45;&gt;before_after -->
<g id="edge38" class="edge">
<title>quality_valid&#45;&gt;before_after</title>
<path fill="none" stroke="black" d="M775.07,-89.83C778.61,-81.88 782.84,-72.37 786.75,-63.57"/>
<polygon fill="black" stroke="black" points="789.95,-64.97 790.82,-54.41 783.56,-62.13 789.95,-64.97"/>
</g>
<!-- quality_report -->
<g id="node37" class="node">
<title>quality_report</title>
<polygon fill="lightpink" stroke="black" points="969,-212 847,-212 847,-176 969,-176 969,-212"/>
<text text-anchor="middle" x="908" y="-190.3" font-family="Times,serif" font-size="14.00">Quality Report</text>
</g>
<!-- before_after&#45;&gt;quality_report -->
<g id="edge43" class="edge">
<title>before_after&#45;&gt;quality_report</title>
<path fill="none" stroke="black" d="M811.53,-54.04C830.9,-81.95 868.21,-135.69 890.32,-167.54"/>
<polygon fill="black" stroke="black" points="887.55,-169.68 896.13,-175.9 893.3,-165.69 887.55,-169.68"/>
</g>
<!-- workflow_doc -->
<g id="node38" class="node">
<title>workflow_doc</title>
<polygon fill="lightpink" stroke="black" points="149.5,-213 24.5,-213 24.5,-175 149.5,-175 149.5,-213"/>
<text text-anchor="middle" x="87" y="-197.8" font-family="Times,serif" font-size="14.00">Workflow</text>
<text text-anchor="middle" x="87" y="-182.8" font-family="Times,serif" font-size="14.00">Documentation</text>
</g>
<!-- before_after&#45;&gt;workflow_doc -->
<g id="edge44" class="edge">
<title>before_after&#45;&gt;workflow_doc</title>
<path fill="none" stroke="black" d="M746.86,-43.94C636.81,-61.29 373.27,-105.96 158,-167 153.07,-168.4 148,-169.97 142.94,-171.64"/>
<polygon fill="black" stroke="black" points="141.61,-168.39 133.27,-174.93 143.86,-175.02 141.61,-168.39"/>
</g>
<!-- clean_menu_csv&#45;&gt;quality_valid -->
<g id="edge34" class="edge">
<title>clean_menu_csv&#45;&gt;quality_valid</title>
<path fill="none" stroke="black" d="M280.86,-175.97C291.58,-172.48 303.09,-169.21 314,-167 359,-157.89 371.35,-163.96 417,-159 522.01,-147.58 644.08,-129.36 712.76,-118.65"/>
<polygon fill="black" stroke="black" points="713.57,-122.07 722.91,-117.06 712.49,-115.15 713.57,-122.07"/>
</g>
<!-- clean_menuitem_csv&#45;&gt;quality_valid -->
<g id="edge35" class="edge">
<title>clean_menuitem_csv&#45;&gt;quality_valid</title>
<path fill="none" stroke="black" d="M748.77,-175.8C751.79,-164.9 755.77,-150.53 759.24,-138.01"/>
<polygon fill="black" stroke="black" points="762.7,-138.61 762,-128.04 755.96,-136.74 762.7,-138.61"/>
</g>
<!-- clean_dish_csv&#45;&gt;quality_valid -->
<g id="edge36" class="edge">
<title>clean_dish_csv&#45;&gt;quality_valid</title>
<path fill="none" stroke="black" d="M431.43,-175.91C440.78,-172.67 450.65,-169.52 460,-167 547.27,-143.52 651.08,-126.44 712.87,-117.39"/>
<polygon fill="black" stroke="black" points="713.39,-120.85 722.79,-115.96 712.39,-113.93 713.39,-120.85"/>
</g>
<!-- clean_menupage_csv&#45;&gt;quality_valid -->
<g id="edge37" class="edge">
<title>clean_menupage_csv&#45;&gt;quality_valid</title>
<path fill="none" stroke="black" d="M598.67,-175.9C631.8,-162.93 677.52,-145.03 712.96,-131.16"/>
<polygon fill="black" stroke="black" points="714.62,-134.27 722.66,-127.36 712.07,-127.75 714.62,-134.27"/>
</g>
</g>
</svg>
