<svg xmlns="http://www.w3.org/2000/svg" xmlns:xlink="http://www.w3.org/1999/xlink" width="668pt" height="834pt" viewBox="0.00 0.00 668.48 834.40">
<g id="graph0" class="graph" transform="scale(1 1) rotate(0) translate(4 830.4)">
<title>NYPL_Data_Cleaning_Workflow</title>
<polygon fill="white" stroke="none" points="-4,4 -4,-830.4 664.48,-830.4 664.48,4 -4,4"/>
<g id="clust1" class="cluster">
<title>cluster_input</title>
<polygon fill="none" stroke="black" stroke-dasharray="5,2" points="220,-741.6 220,-818.4 496,-818.4 496,-741.6 220,-741.6"/>
<text text-anchor="middle" x="358" y="-801.8" font-family="Times,serif" font-size="14.00">Input Data</text>
</g>
<g id="clust2" class="cluster">
<title>cluster_profiling</title>
<polygon fill="none" stroke="black" stroke-dasharray="5,2" points="8,-568.8 8,-733.6 120,-733.6 120,-568.8 8,-568.8"/>
<text text-anchor="middle" x="64" y="-717" font-family="Times,serif" font-size="14.00">Data Profiling</text>
</g>
<g id="clust3" class="cluster">
<title>cluster_menu_clean</title>
<polygon fill="none" stroke="black" stroke-dasharray="5,2" points="128,-98.4 128,-733.6 280,-733.6 280,-98.4 128,-98.4"/>
<text text-anchor="middle" x="204" y="-717" font-family="Times,serif" font-size="14.00">Menu Cleaning Pipeline</text>
</g>
<g id="clust4" class="cluster">
<title>cluster_menuitem_clean</title>
<polygon fill="none" stroke="black" stroke-dasharray="5,2" points="288,-98.4 288,-651.2 465,-651.2 465,-98.4 288,-98.4"/>
<text text-anchor="middle" x="376.5" y="-634.6" font-family="Times,serif" font-size="14.00">MenuItem Cleaning Pipeline</text>
</g>
<g id="clust5" class="cluster">
<title>cluster_validation</title>
<polygon fill="none" stroke="black" stroke-dasharray="5,2" points="513,-98.4 513,-258.4 633,-258.4 633,-98.4 513,-98.4"/>
<text text-anchor="middle" x="573" y="-241.8" font-family="Times,serif" font-size="14.00">Quality Validation</text>
</g>
<g id="clust6" class="cluster">
<title>cluster_output</title>
<polygon fill="none" stroke="black" stroke-dasharray="5,2" points="99,-8 99,-90.4 628,-90.4 628,-8 99,-8"/>
<text text-anchor="middle" x="363.5" y="-73.8" font-family="Times,serif" font-size="14.00">Output Data</text>
</g>
<!-- raw_menu_csv -->
<g id="node1" class="node">
<title>raw_menu_csv</title>
<polygon fill="lightblue" stroke="black" points="336.28,-785.6 227.72,-785.6 227.72,-749.6 336.28,-749.6 336.28,-785.6"/>
<text text-anchor="middle" x="282" y="-763.4" font-family="Times,serif" font-size="14.00">Raw Menu CSV</text>
</g>
<!-- profiling -->
<g id="node3" class="node">
<title>profiling</title>
<polygon fill="lightyellow" stroke="black" points="111.85,-700.8 16.15,-700.8 16.15,-659.2 111.85,-659.2 111.85,-700.8"/>
<text text-anchor="middle" x="64" y="-684.2" font-family="Times,serif" font-size="14.00">Data Profiling</text>
<text text-anchor="middle" x="64" y="-667.4" font-family="Times,serif" font-size="14.00">&amp; Analysis</text>
</g>
<!-- raw_menu_csv&#45;&gt;profiling -->
<g id="edge1" class="edge">
<title>raw_menu_csv-&gt;profiling</title>
<path fill="none" stroke="black" d="M227.44,-762.16C195.9,-757.93 156.22,-749.68 124,-733.6 111.63,-727.43 99.79,-718.08 89.95,-708.96"/>
<polygon fill="black" stroke="black" points="92.54,-706.61 82.93,-702.15 87.67,-711.63 92.54,-706.61"/>
</g>
<!-- menu_cleaning -->
<g id="node5" class="node">
<title>menu_cleaning</title>
<polygon fill="lightgreen" stroke="black" points="268.07,-700.8 173.93,-700.8 173.93,-659.2 268.07,-659.2 268.07,-700.8"/>
<text text-anchor="middle" x="221" y="-684.2" font-family="Times,serif" font-size="14.00">Menu Dataset</text>
<text text-anchor="middle" x="221" y="-667.4" font-family="Times,serif" font-size="14.00">Cleaning</text>
</g>
<!-- raw_menu_csv&#45;&gt;menu_cleaning -->
<g id="edge4" class="edge">
<title>raw_menu_csv-&gt;menu_cleaning</title>
<path fill="none" stroke="black" d="M269.66,-749.28C261.64,-738.03 251,-723.1 241.72,-710.07"/>
<polygon fill="black" stroke="black" points="244.78,-708.34 236.13,-702.23 239.08,-712.41 244.78,-708.34"/>
</g>
<!-- before_after -->
<g id="node21" class="node">
<title>before_after</title>
<polygon fill="lightgray" stroke="black" points="608.76,-148 521.24,-148 521.24,-106.4 608.76,-106.4 608.76,-148"/>
<text text-anchor="middle" x="565" y="-131.4" font-family="Times,serif" font-size="14.00">Before/After</text>
<text text-anchor="middle" x="565" y="-114.6" font-family="Times,serif" font-size="14.00">Analysis</text>
</g>
<!-- raw_menu_csv&#45;&gt;before_after -->
<g id="edge24" class="edge">
<title>raw_menu_csv-&gt;before_after</title>
<path fill="none" stroke="black" d="M311.51,-749.31C362.97,-719.03 464.16,-658.88 469,-651.2 500.04,-601.97 483,-579.2 483,-521 483,-521 483,-521 483,-286.2 483,-238.19 494.35,-225.79 518,-184 523.36,-174.53 530.42,-165.13 537.43,-156.82"/>
<polygon fill="black" stroke="black" points="539.96,-159.24 543.93,-149.42 534.7,-154.62 539.96,-159.24"/>
</g>
<!-- raw_menuitem_csv -->
<g id="node2" class="node">
<title>raw_menuitem_csv</title>
<polygon fill="lightblue" stroke="black" points="488.11,-785.6 353.89,-785.6 353.89,-749.6 488.11,-749.6 488.11,-785.6"/>
<text text-anchor="middle" x="421" y="-763.4" font-family="Times,serif" font-size="14.00">Raw MenuItem CSV</text>
</g>
<!-- raw_menuitem_csv&#45;&gt;profiling -->
<g id="edge2" class="edge">
<title>raw_menuitem_csv-&gt;profiling</title>
<path fill="none" stroke="black" d="M374.91,-749.15C365.16,-746.11 354.84,-743.36 345,-741.6 320.81,-737.27 146.84,-742.67 124,-733.6 110.62,-728.29 98.22,-718.62 88.2,-709.01"/>
<polygon fill="black" stroke="black" points="90.95,-706.81 81.44,-702.13 85.95,-711.72 90.95,-706.81"/>
</g>
<!-- menuitem_cleaning -->
<g id="node13" class="node">
<title>menuitem_cleaning</title>
<polygon fill="lightcoral" stroke="black" points="454.9,-618.4 335.1,-618.4 335.1,-576.8 454.9,-576.8 454.9,-618.4"/>
<text text-anchor="middle" x="395" y="-601.8" font-family="Times,serif" font-size="14.00">MenuItem Dataset</text>
<text text-anchor="middle" x="395" y="-585" font-family="Times,serif" font-size="14.00">Cleaning</text>
</g>
<!-- raw_menuitem_csv&#45;&gt;menuitem_cleaning -->
<g id="edge13" class="edge">
<title>raw_menuitem_csv-&gt;menuitem_cleaning</title>
<path fill="none" stroke="black" d="M418.32,-749.25C413.96,-721.08 405.28,-665 399.82,-629.78"/>
<polygon fill="black" stroke="black" points="403.33,-629.54 398.34,-620.2 396.41,-630.61 403.33,-629.54"/>
</g>
<!-- raw_menuitem_csv&#45;&gt;before_after -->
<g id="edge25" class="edge">
<title>raw_menuitem_csv-&gt;before_after</title>
<path fill="none" stroke="black" d="M439.81,-749.49C468.78,-721.17 521,-661.39 521,-598.6 521,-598.6 521,-598.6 521,-286.2 521,-240 526.24,-228.1 540,-184 542.61,-175.64 546.13,-166.87 549.71,-158.83"/>
<polygon fill="black" stroke="black" points="552.87,-160.33 553.91,-149.79 546.52,-157.39 552.87,-160.33"/>
</g>
<!-- sql_analysis -->
<g id="node4" class="node">
<title>sql_analysis</title>
<polygon fill="lightyellow" stroke="black" points="107.97,-618.4 20.03,-618.4 20.03,-576.8 107.97,-576.8 107.97,-618.4"/>
<text text-anchor="middle" x="64" y="-601.8" font-family="Times,serif" font-size="14.00">SQL Quality</text>
<text text-anchor="middle" x="64" y="-585" font-family="Times,serif" font-size="14.00">Analysis</text>
</g>
<!-- profiling&#45;&gt;sql_analysis -->
<g id="edge3" class="edge">
<title>profiling-&gt;sql_analysis</title>
<path fill="none" stroke="black" d="M64,-658.71C64,-650.05 64,-639.73 64,-630.11"/>
<polygon fill="black" stroke="black" points="67.5,-630.4 64,-620.4 60.5,-630.4 67.5,-630.4"/>
</g>
<!-- string_trim -->
<g id="node6" class="node">
<title>string_trim</title>
<polygon fill="lightgreen" stroke="black" points="272.25,-615.6 161.75,-615.6 161.75,-579.6 272.25,-579.6 272.25,-615.6"/>
<text text-anchor="middle" x="217" y="-593.4" font-family="Times,serif" font-size="14.00">String Trimming</text>
</g>
<!-- menu_cleaning&#45;&gt;string_trim -->
<g id="edge5" class="edge">
<title>menu_cleaning-&gt;string_trim</title>
<path fill="none" stroke="black" d="M219.99,-658.71C219.52,-649.22 218.95,-637.74 218.43,-627.37"/>
<polygon fill="black" stroke="black" points="221.93,-627.21 217.94,-617.4 214.94,-627.56 221.93,-627.21"/>
</g>
<!-- type_convert -->
<g id="node7" class="node">
<title>type_convert</title>
<polygon fill="lightgreen" stroke="black" points="258.28,-540.8 177.72,-540.8 177.72,-499.2 258.28,-499.2 258.28,-540.8"/>
<text text-anchor="middle" x="218" y="-524.2" font-family="Times,serif" font-size="14.00">Data Type</text>
<text text-anchor="middle" x="218" y="-507.4" font-family="Times,serif" font-size="14.00">Conversion</text>
</g>
<!-- string_trim&#45;&gt;type_convert -->
<g id="edge6" class="edge">
<title>string_trim-&gt;type_convert</title>
<path fill="none" stroke="black" d="M217.23,-579.45C217.33,-571.42 217.46,-561.6 217.59,-552.32"/>
<polygon fill="black" stroke="black" points="221.08,-552.59 217.72,-542.54 214.08,-552.5 221.08,-552.59"/>
</g>
<!-- value_std -->
<g id="node8" class="node">
<title>value_std</title>
<polygon fill="lightgreen" stroke="black" points="270.93,-463.2 167.07,-463.2 167.07,-421.6 270.93,-421.6 270.93,-463.2"/>
<text text-anchor="middle" x="219" y="-446.6" font-family="Times,serif" font-size="14.00">Value</text>
<text text-anchor="middle" x="219" y="-429.8" font-family="Times,serif" font-size="14.00">Standardization</text>
</g>
<!-- type_convert&#45;&gt;value_std -->
<g id="edge7" class="edge">
<title>type_convert-&gt;value_std</title>
<path fill="none" stroke="black" d="M218.27,-498.74C218.37,-491.39 218.48,-482.91 218.58,-474.83"/>
<polygon fill="black" stroke="black" points="222.08,-475.01 218.71,-464.97 215.08,-474.92 222.08,-475.01"/>
</g>
<!-- geo_enrich -->
<g id="node9" class="node">
<title>geo_enrich</title>
<polygon fill="lightgreen" stroke="black" points="260.66,-385.6 179.34,-385.6 179.34,-344 260.66,-344 260.66,-385.6"/>
<text text-anchor="middle" x="220" y="-369" font-family="Times,serif" font-size="14.00">Geographic</text>
<text text-anchor="middle" x="220" y="-352.2" font-family="Times,serif" font-size="14.00">Enrichment</text>
</g>
<!-- value_std&#45;&gt;geo_enrich -->
<g id="edge8" class="edge">
<title>value_std-&gt;geo_enrich</title>
<path fill="none" stroke="black" d="M219.27,-421.14C219.37,-413.79 219.48,-405.31 219.58,-397.23"/>
<polygon fill="black" stroke="black" points="223.08,-397.41 219.71,-387.37 216.08,-397.32 223.08,-397.41"/>
</g>
<!-- wikidata -->
<g id="node10" class="node">
<title>wikidata</title>
<polygon fill="lightgreen" stroke="black" points="270.82,-308 173.18,-308 173.18,-266.4 270.82,-266.4 270.82,-308"/>
<text text-anchor="middle" x="222" y="-291.4" font-family="Times,serif" font-size="14.00">Wikidata</text>
<text text-anchor="middle" x="222" y="-274.6" font-family="Times,serif" font-size="14.00">Reconciliation</text>
</g>
<!-- geo_enrich&#45;&gt;wikidata -->
<g id="edge9" class="edge">
<title>geo_enrich-&gt;wikidata</title>
<path fill="none" stroke="black" d="M220.54,-343.54C220.73,-336.19 220.95,-327.71 221.17,-319.63"/>
<polygon fill="black" stroke="black" points="224.66,-319.86 221.43,-309.77 217.67,-319.67 224.66,-319.86"/>
</g>
<!-- opencage -->
<g id="node11" class="node">
<title>opencage</title>
<polygon fill="lightgreen" stroke="black" points="266.71,-225.6 189.29,-225.6 189.29,-184 266.71,-184 266.71,-225.6"/>
<text text-anchor="middle" x="228" y="-209" font-family="Times,serif" font-size="14.00">OpenCage</text>
<text text-anchor="middle" x="228" y="-192.2" font-family="Times,serif" font-size="14.00">Geocoding</text>
</g>
<!-- wikidata&#45;&gt;opencage -->
<g id="edge10" class="edge">
<title>wikidata-&gt;opencage</title>
<path fill="none" stroke="black" d="M223.51,-265.91C224.16,-257.25 224.93,-246.93 225.65,-237.31"/>
<polygon fill="black" stroke="black" points="229.12,-237.82 226.37,-227.59 222.14,-237.3 229.12,-237.82"/>
</g>
<!-- column_cleanup -->
<g id="node12" class="node">
<title>column_cleanup</title>
<polygon fill="lightgreen" stroke="black" points="265.33,-148 202.67,-148 202.67,-106.4 265.33,-106.4 265.33,-148"/>
<text text-anchor="middle" x="234" y="-131.4" font-family="Times,serif" font-size="14.00">Column</text>
<text text-anchor="middle" x="234" y="-114.6" font-family="Times,serif" font-size="14.00">Cleanup</text>
</g>
<!-- opencage&#45;&gt;column_cleanup -->
<g id="edge11" class="edge">
<title>opencage-&gt;column_cleanup</title>
<path fill="none" stroke="black" d="M229.61,-183.54C230.19,-176.19 230.86,-167.71 231.51,-159.63"/>
<polygon fill="black" stroke="black" points="234.99,-160.01 232.29,-149.76 228.01,-159.45 234.99,-160.01"/>
</g>
<!-- clean_menu_csv -->
<g id="node22" class="node">
<title>clean_menu_csv</title>
<polygon fill="lightpink" stroke="black" points="340.78,-54.8 225.22,-54.8 225.22,-18.8 340.78,-18.8 340.78,-54.8"/>
<text text-anchor="middle" x="283" y="-32.6" font-family="Times,serif" font-size="14.00">Clean Menu CSV</text>
</g>
<!-- column_cleanup&#45;&gt;clean_menu_csv -->
<g id="edge12" class="edge">
<title>column_cleanup-&gt;clean_menu_csv</title>
<path fill="none" stroke="black" d="M245.12,-106.14C251.85,-94 260.52,-78.36 267.87,-65.1"/>
<polygon fill="black" stroke="black" points="270.89,-66.86 272.68,-56.42 264.77,-63.47 270.89,-66.86"/>
</g>
<!-- price_valid -->
<g id="node14" class="node">
<title>price_valid</title>
<polygon fill="lightcoral" stroke="black" points="432.55,-540.8 357.45,-540.8 357.45,-499.2 432.55,-499.2 432.55,-540.8"/>
<text text-anchor="middle" x="395" y="-524.2" font-family="Times,serif" font-size="14.00">Price Data</text>
<text text-anchor="middle" x="395" y="-507.4" font-family="Times,serif" font-size="14.00">Validation</text>
</g>
<!-- menuitem_cleaning&#45;&gt;price_valid -->
<g id="edge14" class="edge">
<title>menuitem_cleaning-&gt;price_valid</title>
<path fill="none" stroke="black" d="M395,-576.34C395,-568.99 395,-560.51 395,-552.43"/>
<polygon fill="black" stroke="black" points="398.5,-552.57 395,-542.57 391.5,-552.57 398.5,-552.57"/>
</g>
<!-- price_impute -->
<g id="node15" class="node">
<title>price_impute</title>
<polygon fill="lightcoral" stroke="black" points="435.72,-463.2 358.28,-463.2 358.28,-421.6 435.72,-421.6 435.72,-463.2"/>
<text text-anchor="middle" x="397" y="-446.6" font-family="Times,serif" font-size="14.00">High Price</text>
<text text-anchor="middle" x="397" y="-429.8" font-family="Times,serif" font-size="14.00">Imputation</text>
</g>
<!-- price_valid&#45;&gt;price_impute -->
<g id="edge15" class="edge">
<title>price_valid-&gt;price_impute</title>
<path fill="none" stroke="black" d="M395.54,-498.74C395.73,-491.39 395.95,-482.91 396.17,-474.83"/>
<polygon fill="black" stroke="black" points="399.66,-475.06 396.43,-464.97 392.67,-474.87 399.66,-475.06"/>
</g>
<!-- high_price_valid -->
<g id="node16" class="node">
<title>high_price_valid</title>
<polygon fill="lightcoral" stroke="black" points="435.13,-385.6 358.87,-385.6 358.87,-344 435.13,-344 435.13,-385.6"/>
<text text-anchor="middle" x="397" y="-369" font-family="Times,serif" font-size="14.00">High Price</text>
<text text-anchor="middle" x="397" y="-352.2" font-family="Times,serif" font-size="14.00">Validation</text>
</g>
<!-- price_impute&#45;&gt;high_price_valid -->
<g id="edge16" class="edge">
<title>price_impute-&gt;high_price_valid</title>
<path fill="none" stroke="black" d="M397,-421.14C397,-413.79 397,-405.31 397,-397.23"/>
<polygon fill="black" stroke="black" points="400.5,-397.37 397,-387.37 393.5,-397.37 400.5,-397.37"/>
</g>
<!-- price_logic -->
<g id="node17" class="node">
<title>price_logic</title>
<polygon fill="lightcoral" stroke="black" points="438.46,-308 357.54,-308 357.54,-266.4 438.46,-266.4 438.46,-308"/>
<text text-anchor="middle" x="398" y="-291.4" font-family="Times,serif" font-size="14.00">Price Logic</text>
<text text-anchor="middle" x="398" y="-274.6" font-family="Times,serif" font-size="14.00">Validation</text>
</g>
<!-- high_price_valid&#45;&gt;price_logic -->
<g id="edge17" class="edge">
<title>high_price_valid-&gt;price_logic</title>
<path fill="none" stroke="black" d="M397.27,-343.54C397.37,-336.19 397.48,-327.71 397.58,-319.63"/>
<polygon fill="black" stroke="black" points="401.08,-319.81 397.71,-309.77 394.08,-319.72 401.08,-319.81"/>
</g>
<!-- field_valid -->
<g id="node18" class="node">
<title>field_valid</title>
<polygon fill="lightcoral" stroke="black" points="451.52,-225.6 346.48,-225.6 346.48,-184 451.52,-184 451.52,-225.6"/>
<text text-anchor="middle" x="399" y="-209" font-family="Times,serif" font-size="14.00">Required Fields</text>
<text text-anchor="middle" x="399" y="-192.2" font-family="Times,serif" font-size="14.00">Validation</text>
</g>
<!-- price_logic&#45;&gt;field_valid -->
<g id="edge18" class="edge">
<title>price_logic-&gt;field_valid</title>
<path fill="none" stroke="black" d="M398.25,-265.91C398.36,-257.25 398.49,-246.93 398.61,-237.31"/>
<polygon fill="black" stroke="black" points="402.1,-237.64 398.73,-227.6 395.1,-237.55 402.1,-237.64"/>
</g>
<!-- position_valid -->
<g id="node19" class="node">
<title>position_valid</title>
<polygon fill="lightcoral" stroke="black" points="450.92,-148 359.08,-148 359.08,-106.4 450.92,-106.4 450.92,-148"/>
<text text-anchor="middle" x="405" y="-131.4" font-family="Times,serif" font-size="14.00">Position Data</text>
<text text-anchor="middle" x="405" y="-114.6" font-family="Times,serif" font-size="14.00">Validation</text>
</g>
<!-- field_valid&#45;&gt;position_valid -->
<g id="edge19" class="edge">
<title>field_valid-&gt;position_valid</title>
<path fill="none" stroke="black" d="M400.61,-183.54C401.19,-176.19 401.86,-167.71 402.51,-159.63"/>
<polygon fill="black" stroke="black" points="405.99,-160.01 403.29,-149.76 399.01,-159.45 405.99,-160.01"/>
</g>
<!-- clean_menuitem_csv -->
<g id="node23" class="node">
<title>clean_menuitem_csv</title>
<polygon fill="lightpink" stroke="black" points="499.6,-54.8 358.4,-54.8 358.4,-18.8 499.6,-18.8 499.6,-54.8"/>
<text text-anchor="middle" x="429" y="-32.6" font-family="Times,serif" font-size="14.00">Clean MenuItem CSV</text>
</g>
<!-- position_valid&#45;&gt;clean_menuitem_csv -->
<g id="edge20" class="edge">
<title>position_valid-&gt;clean_menuitem_csv</title>
<path fill="none" stroke="black" d="M410.45,-106.14C413.68,-94.24 417.82,-78.98 421.37,-65.89"/>
<polygon fill="black" stroke="black" points="424.67,-67.12 423.91,-56.56 417.91,-65.29 424.67,-67.12"/>
</g>
<!-- quality_valid -->
<g id="node20" class="node">
<title>quality_valid</title>
<polygon fill="lightgray" stroke="black" points="624.55,-225.6 549.45,-225.6 549.45,-184 624.55,-184 624.55,-225.6"/>
<text text-anchor="middle" x="587" y="-209" font-family="Times,serif" font-size="14.00">Quality</text>
<text text-anchor="middle" x="587" y="-192.2" font-family="Times,serif" font-size="14.00">Validation</text>
</g>
<!-- quality_valid&#45;&gt;before_after -->
<g id="edge23" class="edge">
<title>quality_valid-&gt;before_after</title>
<path fill="none" stroke="black" d="M581.1,-183.54C578.92,-176.02 576.38,-167.32 573.98,-159.07"/>
<polygon fill="black" stroke="black" points="577.41,-158.33 571.26,-149.71 570.69,-160.29 577.41,-158.33"/>
</g>
<!-- quality_report -->
<g id="node24" class="node">
<title>quality_report</title>
<polygon fill="lightpink" stroke="black" points="206.8,-54.8 107.2,-54.8 107.2,-18.8 206.8,-18.8 206.8,-54.8"/>
<text text-anchor="middle" x="157" y="-32.6" font-family="Times,serif" font-size="14.00">Quality Report</text>
</g>
<!-- before_after&#45;&gt;quality_report -->
<g id="edge26" class="edge">
<title>before_after-&gt;quality_report</title>
<path fill="none" stroke="black" d="M521.08,-110.98C504.9,-106.04 486.31,-101.14 469,-98.4 441.22,-94.01 242.12,-100.83 216,-90.4 201.62,-84.66 188.45,-73.76 178.23,-63.36"/>
<polygon fill="black" stroke="black" points="181.08,-61.3 171.72,-56.35 175.96,-66.06 181.08,-61.3"/>
</g>
<!-- workflow_doc -->
<g id="node25" class="node">
<title>workflow_doc</title>
<polygon fill="lightpink" stroke="black" points="620.16,-57.6 517.84,-57.6 517.84,-16 620.16,-16 620.16,-57.6"/>
<text text-anchor="middle" x="569" y="-41" font-family="Times,serif" font-size="14.00">Workflow</text>
<text text-anchor="middle" x="569" y="-24.2" font-family="Times,serif" font-size="14.00">Documentation</text>
</g>
<!-- before_after&#45;&gt;workflow_doc -->
<g id="edge27" class="edge">
<title>before_after-&gt;workflow_doc</title>
<path fill="none" stroke="black" d="M565.91,-106.14C566.4,-95.25 567.02,-81.55 567.58,-69.28"/>
<polygon fill="black" stroke="black" points="571.06,-69.75 568.01,-59.6 564.07,-69.43 571.06,-69.75"/>
</g>
<!-- clean_menu_csv&#45;&gt;quality_valid -->
<g id="edge21" class="edge">
<title>clean_menu_csv-&gt;quality_valid</title>
<path fill="none" stroke="black" d="M298.73,-55.28C311.04,-67.62 329.33,-83.19 349,-90.4 363.04,-95.55 607.59,-87.67 618,-98.4 637.65,-118.64 624.25,-150.66 609.43,-174.11"/>
<polygon fill="black" stroke="black" points="606.59,-172.06 603.93,-182.31 612.41,-175.96 606.59,-172.06"/>
</g>
<!-- clean_menuitem_csv&#45;&gt;quality_valid -->
<g id="edge22" class="edge">
<title>clean_menuitem_csv-&gt;quality_valid</title>
<path fill="none" stroke="black" d="M448.81,-55.14C464.11,-67.41 486.43,-82.95 509,-90.4 524.01,-95.36 640.14,-86.92 651,-98.4 666.14,-114.42 660.13,-127.93 651,-148 646.05,-158.88 637.82,-168.47 628.87,-176.49"/>
<polygon fill="black" stroke="black" points="626.81,-173.65 621.33,-182.72 631.27,-179.05 626.81,-173.65"/>
</g>
</g>
</svg>